<svg width="156" height="27" viewBox="0 0 156 27" fill="none" xmlns="http://www.w3.org/2000/svg">
<path d="M51.104 21H48.824L44.504 8.952L40.208 21H37.928L32.024 5.16H35.024L39.08 17.448L43.16 5.16H45.872L49.928 17.448L53.984 5.16H56.984L51.104 21ZM62.5314 9.6C63.9394 9.6 65.0274 9.96 65.7954 10.68C66.5634 11.384 66.9474 12.384 66.9474 13.68C66.9474 13.856 66.9314 14.048 66.8994 14.256C66.8834 14.448 66.8514 14.64 66.8034 14.832C66.7714 15.024 66.7234 15.2 66.6594 15.36C66.6114 15.504 66.5554 15.624 66.4914 15.72H59.5074C59.5394 16.2 59.6274 16.656 59.7714 17.088C59.9154 17.504 60.1234 17.872 60.3954 18.192C60.6674 18.496 60.9954 18.744 61.3794 18.936C61.7794 19.112 62.2434 19.2 62.7714 19.2C63.3634 19.2 63.9874 19.088 64.6434 18.864C65.3154 18.64 65.8834 18.36 66.3474 18.024L66.7794 19.992C66.5714 20.12 66.3154 20.264 66.0114 20.424C65.7074 20.568 65.3634 20.704 64.9794 20.832C64.5954 20.96 64.1794 21.064 63.7314 21.144C63.2994 21.24 62.8434 21.288 62.3634 21.288C61.4674 21.288 60.6754 21.136 59.9874 20.832C59.2994 20.512 58.7234 20.088 58.2594 19.56C57.7954 19.016 57.4434 18.392 57.2034 17.688C56.9634 16.984 56.8434 16.248 56.8434 15.48C56.8434 14.696 56.9634 13.952 57.2034 13.248C57.4594 12.528 57.8274 11.896 58.3074 11.352C58.7874 10.808 59.3794 10.384 60.0834 10.08C60.8034 9.76 61.6194 9.6 62.5314 9.6ZM62.4594 11.664C61.7874 11.664 61.2114 11.864 60.7314 12.264C60.2674 12.648 59.9314 13.176 59.7234 13.848H64.3074C64.3234 13.8 64.3314 13.744 64.3314 13.68C64.3474 13.616 64.3554 13.536 64.3554 13.44C64.3554 12.928 64.1794 12.504 63.8274 12.168C63.4754 11.832 63.0194 11.664 62.4594 11.664ZM75.7046 21.288C74.8406 21.288 74.1206 21.112 73.5446 20.76C72.9846 20.408 72.4806 19.984 72.0326 19.488H71.9366L71.7446 21H69.6326V3.24H72.2486V11.064C72.6166 10.6 73.1046 10.24 73.7126 9.984C74.3206 9.728 75.0086 9.6 75.7766 9.6C76.6086 9.6 77.3366 9.76 77.9606 10.08C78.5846 10.4 79.1046 10.824 79.5206 11.352C79.9366 11.88 80.2406 12.496 80.4326 13.2C80.6406 13.888 80.7446 14.608 80.7446 15.36C80.7446 16.208 80.6246 16.992 80.3846 17.712C80.1446 18.432 79.8006 19.056 79.3526 19.584C78.9206 20.112 78.3926 20.528 77.7686 20.832C77.1446 21.136 76.4566 21.288 75.7046 21.288ZM75.3686 19.296C75.8326 19.296 76.2326 19.184 76.5686 18.96C76.9206 18.736 77.2086 18.448 77.4326 18.096C77.6726 17.728 77.8486 17.312 77.9606 16.848C78.0726 16.368 78.1286 15.888 78.1286 15.408C78.1286 14.912 78.0646 14.44 77.9366 13.992C77.8246 13.528 77.6406 13.12 77.3846 12.768C77.1446 12.416 76.8326 12.144 76.4486 11.952C76.0806 11.744 75.6486 11.64 75.1526 11.64C74.6886 11.64 74.2086 11.752 73.7126 11.976C73.2166 12.184 72.7286 12.584 72.2486 13.176V17.784C72.4246 18.024 72.6406 18.24 72.8966 18.432C73.1526 18.608 73.4166 18.76 73.6886 18.888C73.9766 19.016 74.2646 19.12 74.5526 19.2C74.8406 19.264 75.1126 19.296 75.3686 19.296ZM92.7086 9.168C92.7086 9.808 92.5726 10.392 92.3006 10.92C92.0446 11.432 91.6366 11.872 91.0766 12.24C92.0366 12.56 92.7886 13.064 93.3326 13.752C93.8766 14.44 94.1486 15.312 94.1486 16.368C94.1486 17.04 94.0286 17.672 93.7886 18.264C93.5486 18.856 93.1806 19.376 92.6846 19.824C92.1886 20.272 91.5726 20.632 90.8366 20.904C90.1006 21.16 89.2366 21.288 88.2446 21.288C87.3646 21.288 86.5086 21.256 85.6766 21.192C84.8446 21.144 84.1486 21.08 83.5886 21V5.16C83.7646 5.144 84.0126 5.136 84.3326 5.136C84.6526 5.12 84.9966 5.104 85.3646 5.088C85.7326 5.072 86.1006 5.064 86.4686 5.064C86.8366 5.048 87.1646 5.04 87.4526 5.04C89.1486 5.04 90.4446 5.392 91.3406 6.096C92.2526 6.784 92.7086 7.808 92.7086 9.168ZM88.1246 13.536C87.8206 13.536 87.5166 13.544 87.2126 13.56C86.9086 13.56 86.6206 13.568 86.3486 13.584V18.936C86.6366 18.968 86.9326 18.984 87.2366 18.984C87.5406 18.984 87.8526 18.984 88.1726 18.984C89.1486 18.984 89.9086 18.744 90.4526 18.264C90.9966 17.784 91.2686 17.088 91.2686 16.176C91.2686 15.36 91.0206 14.72 90.5246 14.256C90.0286 13.776 89.2286 13.536 88.1246 13.536ZM87.9086 7.296C87.5886 7.296 87.3006 7.312 87.0446 7.344C86.8046 7.36 86.5726 7.384 86.3486 7.416V11.52C86.5406 11.536 86.7326 11.544 86.9246 11.544C87.1326 11.544 87.3406 11.544 87.5486 11.544C88.2526 11.544 88.8046 11.312 89.2046 10.848C89.6046 10.368 89.8046 9.744 89.8046 8.976C89.8046 8.496 89.6366 8.096 89.3006 7.776C88.9806 7.456 88.5166 7.296 87.9086 7.296ZM99.2469 9.96V17.136C99.2469 17.792 99.4149 18.296 99.7509 18.648C100.103 18.984 100.551 19.152 101.095 19.152C101.655 19.152 102.167 18.968 102.631 18.6C103.095 18.216 103.439 17.672 103.663 16.968V9.96H106.327V21H104.263L104.119 19.464H104.023C103.847 19.832 103.623 20.136 103.351 20.376C103.079 20.6 102.775 20.784 102.439 20.928C102.119 21.056 101.783 21.144 101.431 21.192C101.079 21.256 100.735 21.288 100.399 21.288C99.8709 21.288 99.3749 21.224 98.9109 21.096C98.4629 20.968 98.0629 20.76 97.7109 20.472C97.3749 20.168 97.1029 19.776 96.8949 19.296C96.7029 18.8 96.6069 18.192 96.6069 17.472V9.96H99.2469ZM112.28 21H109.64V9.96H112.28V21ZM109.256 6.408C109.256 6.184 109.296 5.968 109.376 5.76C109.472 5.552 109.6 5.368 109.76 5.208C109.92 5.032 110.096 4.896 110.288 4.8C110.496 4.704 110.72 4.656 110.96 4.656C111.184 4.656 111.4 4.704 111.608 4.8C111.816 4.896 112 5.032 112.16 5.208C112.336 5.368 112.472 5.552 112.568 5.76C112.664 5.968 112.712 6.184 112.712 6.408C112.712 6.648 112.664 6.872 112.568 7.08C112.472 7.272 112.336 7.448 112.16 7.608C112 7.768 111.816 7.896 111.608 7.992C111.4 8.072 111.184 8.112 110.96 8.112C110.496 8.112 110.096 7.944 109.76 7.608C109.424 7.272 109.256 6.872 109.256 6.408ZM118.378 21H115.738V3.24H118.378V21ZM126.22 21.288C125.468 21.288 124.78 21.136 124.156 20.832C123.532 20.528 122.996 20.112 122.548 19.584C122.116 19.056 121.78 18.432 121.54 17.712C121.3 16.992 121.18 16.208 121.18 15.36C121.18 14.608 121.276 13.888 121.468 13.2C121.676 12.496 121.988 11.88 122.404 11.352C122.82 10.824 123.332 10.4 123.94 10.08C124.564 9.76 125.3 9.6 126.148 9.6C126.916 9.6 127.604 9.728 128.212 9.984C128.82 10.24 129.308 10.6 129.676 11.064V3.24H132.292V21H130.18L129.988 19.488H129.892C129.444 19.984 128.932 20.408 128.356 20.76C127.796 21.112 127.084 21.288 126.22 21.288ZM126.556 19.296C126.812 19.296 127.084 19.264 127.372 19.2C127.66 19.12 127.94 19.016 128.212 18.888C128.5 18.76 128.772 18.608 129.028 18.432C129.284 18.24 129.5 18.024 129.676 17.784V13.176C129.196 12.584 128.708 12.184 128.212 11.976C127.716 11.752 127.236 11.64 126.772 11.64C126.26 11.64 125.82 11.744 125.452 11.952C125.084 12.144 124.772 12.416 124.516 12.768C124.276 13.12 124.092 13.528 123.964 13.992C123.852 14.44 123.796 14.912 123.796 15.408C123.796 15.888 123.852 16.368 123.964 16.848C124.076 17.312 124.244 17.728 124.468 18.096C124.692 18.448 124.98 18.736 125.332 18.96C125.684 19.184 126.092 19.296 126.556 19.296ZM140.625 9.6C142.033 9.6 143.121 9.96 143.889 10.68C144.657 11.384 145.041 12.384 145.041 13.68C145.041 13.856 145.025 14.048 144.993 14.256C144.977 14.448 144.945 14.64 144.897 14.832C144.865 15.024 144.817 15.2 144.753 15.36C144.705 15.504 144.649 15.624 144.585 15.72H137.601C137.633 16.2 137.721 16.656 137.865 17.088C138.009 17.504 138.217 17.872 138.489 18.192C138.761 18.496 139.089 18.744 139.473 18.936C139.873 19.112 140.337 19.2 140.865 19.2C141.457 19.2 142.081 19.088 142.737 18.864C143.409 18.64 143.977 18.36 144.441 18.024L144.873 19.992C144.665 20.12 144.409 20.264 144.105 20.424C143.801 20.568 143.457 20.704 143.073 20.832C142.689 20.96 142.273 21.064 141.825 21.144C141.393 21.24 140.937 21.288 140.457 21.288C139.561 21.288 138.769 21.136 138.081 20.832C137.393 20.512 136.817 20.088 136.353 19.56C135.889 19.016 135.537 18.392 135.297 17.688C135.057 16.984 134.937 16.248 134.937 15.48C134.937 14.696 135.057 13.952 135.297 13.248C135.553 12.528 135.921 11.896 136.401 11.352C136.881 10.808 137.473 10.384 138.177 10.08C138.897 9.76 139.713 9.6 140.625 9.6ZM140.553 11.664C139.881 11.664 139.305 11.864 138.825 12.264C138.361 12.648 138.025 13.176 137.817 13.848H142.401C142.417 13.8 142.425 13.744 142.425 13.68C142.441 13.616 142.449 13.536 142.449 13.44C142.449 12.928 142.273 12.504 141.921 12.168C141.569 11.832 141.113 11.664 140.553 11.664ZM154.038 12.36C153.878 12.232 153.63 12.128 153.294 12.048C152.958 11.968 152.67 11.928 152.43 11.928C152.11 11.928 151.846 12.008 151.638 12.168C151.43 12.312 151.246 12.512 151.086 12.768C150.926 13.008 150.79 13.288 150.678 13.608C150.566 13.928 150.462 14.256 150.366 14.592V21H147.726V9.96H149.79L149.91 12.264H150.006C150.166 11.928 150.334 11.6 150.51 11.28C150.686 10.96 150.886 10.68 151.11 10.44C151.334 10.184 151.59 9.984 151.878 9.84C152.182 9.68 152.534 9.6 152.934 9.6C153.574 9.6 154.174 9.808 154.734 10.224L154.038 12.36Z" fill="#312094"/>
<path fill-rule="evenodd" clip-rule="evenodd" d="M12 1C5.376 1 0 6.376 0 13C0 19.624 5.376 25 12 25C18.624 25 24 19.624 24 13C24 6.376 18.624 1 12 1ZM17.448 17.62L16.62 18.448C16.509 18.5592 16.3771 18.6475 16.232 18.7077C16.0868 18.7679 15.9312 18.7989 15.774 18.7989C15.6168 18.7989 15.4612 18.7679 15.3161 18.7077C15.1709 18.6475 15.039 18.5592 14.928 18.448L11.268 14.788C9.804 15.304 8.1 14.992 6.924 13.816C6.29236 13.1812 5.88231 12.3597 5.75476 11.4733C5.62721 10.587 5.78897 9.68311 6.216 8.896L9.036 11.716L10.728 10.024L7.896 7.204C9.48 6.352 11.484 6.58 12.816 7.912C13.992 9.088 14.304 10.792 13.788 12.256L17.448 15.916C17.916 16.384 17.916 17.152 17.448 17.62V17.62Z" fill="#312094"/>
</svg>
